# xmcd
#
# Track frame offsets: 
#        187
#        14967
#        33547
#        48430
#        71007
#        87200
#        106680
#        123337
#        138312
#        154765
#        173452
#        190925
#        204202
#        223830
#        238750
#        255172
#
# Disc length: 3631 seconds
#
# Revision: 2
# Processed by: cddbd v1.5.2PL0 Copyright (c) Steve Scherf et al.
# Submitted via: ExactAudioCopy v1.0b3
#
DISCID=d80e2d10
DTITLE=荻野目洋子 - 荻野目洋子 ザ・ベスト
DYEAR=1985
DGENRE=JPop
TTITLE0=未来航海 - sailing -
TTITLE1=流星少女
TTITLE2=さよならから始まる物語
TTITLE3=夏の微笑
TTITLE4=ティーンズ・ロマンス
TTITLE5=ディセンバー・メモリー
TTITLE6=雨とジャスミン
TTITLE7=無国籍ロマンス
TTITLE8=フリージアの雨
TTITLE9=2Bの鉛筆
TTITLE10=恋してカリビアン
TTITLE11=愛のタイムカプセル
TTITLE12=心のままに ～I'm just a lady～
TTITLE13=スイート・バケーション
TTITLE14=貝殻テラス
TTITLE15=ダンシング・ヒーロー (Eat You Up)
EXTD=
EXTT0=
EXTT1=
EXTT2=
EXTT3=
EXTT4=
EXTT5=
EXTT6=
EXTT7=
EXTT8=
EXTT9=
EXTT10=
EXTT11=
EXTT12=
EXTT13=
EXTT14=
EXTT15=
PLAYORDER=
